<?xml version="1.0" encoding="UTF-8" standalone="no"?>
<!-- Created with Inkscape (http://www.inkscape.org/) -->

<svg
   version="1.1"
   id="svg1"
   width="1200"
   height="1200"
   viewBox="0 0 1200 1200"
   xmlns="http://www.w3.org/2000/svg"
   xmlns:svg="http://www.w3.org/2000/svg">
  <defs
     id="defs1" />
  <g
     id="g1">
    <g
       id="g55">
      <path
         style="fill:#c4d0c4"
         d="M 0,600 V 0 h 600 600 v 600 600 H 600 0 Z m 550.51652,193.46484 c 19.56566,-4.0414 42.34513,-16.62611 64.76977,-35.7826 3.18245,-2.71865 5.90937,-4.77183 6.0598,-4.56262 0.15043,0.20921 2.23125,3.75538 4.62403,7.88038 7.57991,13.06724 20.45665,23.76295 34.10311,28.3268 25.18642,8.4232 63.27514,-0.16148 90.5684,-20.4129 l 5.14164,-3.81505 8.35836,8.21187 c 13.78738,13.54573 27.78217,18.90084 49.35837,18.88701 31.10255,-0.0199 58.87675,-13.87382 86.93688,-43.36446 C 913.69355,734.90077 918,727.13978 918,717.18137 c 0,-7.87073 -2.4974,-13.72536 -8.22645,-19.28522 -8.00306,-7.76671 -17.98751,-10.42941 -28.09243,-7.49183 -5.14789,1.49654 -6.82739,2.85262 -20.39548,16.46806 -8.1321,8.16047 -17.02477,16.3441 -19.76148,18.18584 -6.87516,4.62682 -15.22052,7.8898 -20.25111,7.91804 -5.42382,0.0305 -7.31463,-2.62151 -8.0043,-11.22651 -1.44989,-18.0903 11.54965,-66.10437 25.78833,-95.24975 7.15856,-14.65297 8.23792,-18.92688 6.48578,-25.68155 -1.65279,-6.37168 -6.95116,-11.89878 -15.39899,-16.06377 -5.80767,-2.86333 -7.18829,-3.13181 -16,-3.11144 -11.54857,0.0267 -18.55902,2.32934 -25.38521,8.33799 -5.19129,4.56956 -14.05989,17.59039 -18.64164,27.36955 -6.82371,14.56437 -17.62173,50.273 -21.13184,69.88224 l -1.20523,6.73301 -11.13998,11.32273 c -11.94878,12.1448 -20.98438,19.1483 -30.0717,23.30862 -5.87014,2.68744 -15.47382,4.14511 -19.93409,3.02565 -3.67665,-0.92278 -7.33739,-6.30302 -9.17859,-13.4899 -1.71793,-6.70575 -2.27905,-26.65836 -1.00712,-35.8119 0.69469,-4.99941 1.03708,-5.45483 9.88557,-13.14904 11.63747,-10.11936 34.98275,-33.96952 44.70537,-45.67219 34.31783,-41.30681 60.68896,-86.50264 72.93574,-125 10.30635,-32.39765 12.5917,-57.56177 6.58432,-72.5 -6.83383,-16.9933 -21.11425,-27.99193 -38.81255,-29.893 -8.52619,-0.91585 -20.35056,0.30696 -28.74692,2.97283 -33.82366,10.73912 -68.19915,52.20541 -90.29465,108.92017 -21.93564,56.30442 -35.02456,108.62818 -40.84782,163.29162 -1.23872,11.62802 -1.3001,11.81879 -4.42397,13.74944 -1.7423,1.0768 -6.12433,5.67058 -9.73785,10.20838 -12.89658,16.19538 -30.88875,31.87699 -43.45449,37.87406 C 546.23156,736.94616 535,738.39004 535,735.59707 c 0,-6.60498 12.24584,-19.74901 28.5,-30.59037 23.14413,-15.43691 37.74582,-33.81092 43.05332,-54.17605 2.21217,-8.4882 1.56352,-29.19781 -1.12226,-35.83065 -6.0561,-14.95622 -16.10658,-23.94272 -31.91831,-28.53932 -8.85357,-2.5738 -27.11277,-1.61611 -38.51275,2.01998 -31.08493,9.91472 -63.46173,37.98129 -94.57401,81.98364 -4.85118,6.86108 -8.99669,12.29834 -9.21222,12.0828 -0.21554,-0.21554 0.0905,-3.50107 0.68012,-7.30118 l 1.07202,-6.90929 11.60285,-11.41832 c 22.34965,-21.99417 61.3243,-66.98803 77.13958,-89.05292 22.40718,-31.26167 40.54833,-66.85253 47.0799,-92.36539 4.75513,-18.57397 3.22951,-39.59336 -3.9292,-54.13477 -3.44651,-7.00086 -12.91291,-16.82158 -19.40932,-20.1358 -10.28257,-5.24578 -26.68252,-6.90723 -41.55661,-4.21005 -37.56112,6.81113 -72.98125,43.13759 -95.3629,97.80302 -27.4412,67.02301 -47.77797,177.11793 -45.19693,244.6776 0.90526,23.69531 4.47896,36.10863 13.02604,45.24615 6.11994,6.5427 12.09128,8.6584 22.70355,8.04407 6.76778,-0.39178 9.13687,-1.06157 16.1828,-4.5752 14.95353,-7.45694 32.42443,-25.40477 51.05034,-52.44395 4.4437,-6.45091 8.18093,-11.62591 8.30495,-11.5 0.12401,0.12591 -0.16587,2.25393 -0.64419,4.72893 -2.14469,11.09746 -0.26435,25.33619 4.711,35.67367 10.45612,21.72504 42.97372,34.75547 71.84875,28.79117 z M 511,675.56241 c 4.55792,-5.0321 19,-15.81116 19,-14.18093 0,0.5323 -17.80967,14.86746 -20,16.09819 -0.825,0.46356 -0.375,-0.39921 1,-1.91726 z M 693.60434,578.25 c 1.64187,-7.02804 15.78337,-48.1941 20.78608,-60.5085 6.72788,-16.561 10.30318,-23.78548 16.76405,-33.87456 C 735.84998,476.5346 744.78297,467 746.95716,467 c 1.45761,0 1.30125,3.83327 -0.51503,12.62642 -4.62792,22.40523 -19.91367,53.12311 -44.44835,89.32238 -4.49235,6.62816 -8.3623,12.0512 -8.5999,12.0512 -0.23759,0 -0.14288,-1.2375 0.21046,-2.75 z m -239.93851,-18.5 c 9.10326,-30.67479 25.53596,-67.03487 37.09618,-82.08149 C 494.91336,472.26517 502.12028,466 504.18448,466 c 0.48642,0 0.60704,2.3625 0.26803,5.25 -1.87577,15.97684 -9.06331,33.75293 -21.03622,52.02637 C 477.2023,532.76034 453.29788,565 452.47988,565 c -0.20465,0 0.32903,-2.3625 1.18595,-5.25 z m 394.72424,7.21442 c 23.2655,-3.36303 38.26469,-22.79133 36.22894,-46.92698 -1.1533,-13.67338 -7.98629,-24.07548 -19.46321,-29.62952 -4.9497,-2.39531 -7.15395,-2.79271 -17.6558,-3.18309 -11.0149,-0.40946 -12.6523,-0.22695 -19.94605,2.22329 -12.5746,4.22427 -21.4011,11.73415 -26.452,22.50625 -2.32792,4.96477 -2.60036,6.75017 -2.60111,17.04563 -7.7e-4,10.57294 0.23228,12.00479 2.89102,17.7618 1.63658,3.54372 4.62154,7.82446 6.87662,9.86179 5.37035,4.85179 14.8312,9.10323 22.73152,10.21492 8.9047,1.25301 9.55997,1.25775 17.39007,0.12591 z"
         id="path60" />
      <path
         style="fill:#c4c4d0"
         d="m 523.3872,794.00118 c -19.05029,-2.79192 -37.89664,-15.15158 -44.71943,-29.32751 -4.97535,-10.33748 -6.85569,-24.57621 -4.711,-35.67367 0.47832,-2.475 0.7682,-4.60302 0.64419,-4.72893 -0.12402,-0.12591 -3.86125,5.04909 -8.30495,11.5 -18.62591,27.03918 -36.09681,44.98701 -51.05034,52.44395 -7.04593,3.51363 -9.41502,4.18342 -16.1828,4.5752 -10.61227,0.61433 -16.58361,-1.50137 -22.70355,-8.04407 -8.54708,-9.13752 -12.12078,-21.55084 -13.02604,-45.24615 -2.58104,-67.55967 17.75573,-177.65459 45.19693,-244.6776 16.87017,-41.20409 40.75521,-71.7139 68.96979,-88.09932 21.00621,-12.19921 50.18205,-14.55804 67.94972,-5.49365 6.49641,3.31422 15.96281,13.13494 19.40932,20.1358 7.15871,14.54141 8.68433,35.5608 3.9292,54.13477 -6.53157,25.51286 -24.67272,61.10372 -47.0799,92.36539 -15.81528,22.06489 -54.78993,67.05875 -77.13958,89.05292 l -11.60285,11.41832 -1.07202,6.90929 c -0.5896,3.80011 -0.89566,7.08564 -0.68012,7.30118 0.21553,0.21554 4.36104,-5.22172 9.21222,-12.0828 31.11228,-44.00235 63.48908,-72.06892 94.57401,-81.98364 11.39998,-3.63609 29.65918,-4.59378 38.51275,-2.01998 15.81173,4.5966 25.86221,13.5831 31.91831,28.53932 2.68578,6.63284 3.33443,27.34245 1.12226,35.83065 -5.3075,20.36513 -19.90919,38.73914 -43.05332,54.17605 -16.25416,10.84136 -28.5,23.98539 -28.5,30.59037 0,2.79297 11.23156,1.34909 19.24122,-2.47357 12.56574,-5.99707 30.55791,-21.67868 43.45449,-37.87406 3.61352,-4.5378 7.99555,-9.13158 9.73785,-10.20838 3.12387,-1.93065 3.18525,-2.12142 4.42397,-13.74944 C 617.68079,616.62818 630.76971,564.30442 652.70535,508 671.79711,458.99526 700.49731,420.62445 730,404.66071 c 12.69388,-6.86858 28.08205,-10.02153 41.74692,-8.55371 17.6983,1.90107 31.97872,12.8997 38.81255,29.893 6.00738,14.93823 3.72203,40.10235 -6.58432,72.5 -12.24678,38.49736 -38.61791,83.69319 -72.93574,125 -9.72262,11.70267 -33.0679,35.55283 -44.70537,45.67219 -8.84849,7.69421 -9.19088,8.14963 -9.88557,13.14904 -1.27193,9.15354 -0.71081,29.10615 1.00712,35.8119 1.8412,7.18688 5.50194,12.56712 9.17859,13.4899 4.46027,1.11946 14.06395,-0.33821 19.93409,-3.02565 9.08732,-4.16032 18.12292,-11.16382 30.0717,-23.30862 l 11.13998,-11.32273 1.20523,-6.73301 c 3.51011,-19.60924 14.30813,-55.31787 21.13184,-69.88224 4.58175,-9.77916 13.45035,-22.79999 18.64164,-27.36955 6.82619,-6.00865 13.83664,-8.31129 25.38521,-8.33799 8.81171,-0.0204 10.19233,0.24811 16,3.11144 8.44783,4.16499 13.7462,9.69209 15.39899,16.06377 1.75214,6.75467 0.67278,11.02858 -6.48578,25.68155 -14.23868,29.14538 -27.23822,77.15945 -25.78833,95.24975 0.68967,8.605 2.58048,11.25697 8.0043,11.22651 5.03059,-0.0282 13.37595,-3.29122 20.25111,-7.91804 2.73671,-1.84174 11.62938,-10.02537 19.76148,-18.18584 13.56809,-13.61544 15.24759,-14.97152 20.39548,-16.46806 10.10492,-2.93758 20.08937,-0.27488 28.09243,7.49183 5.72905,5.55986 8.22645,11.41449 8.22645,19.28522 0,9.95841 -4.30645,17.7194 -17.56312,31.6519 -28.06013,29.49064 -55.83433,43.34452 -86.93688,43.36446 -21.5762,0.0138 -35.57099,-5.34128 -49.35837,-18.88701 l -8.35836,-8.21187 -5.14164,3.81505 c -27.29326,20.25142 -65.38198,28.8361 -90.5684,20.4129 -13.64646,-4.56385 -26.5232,-15.25956 -34.10311,-28.3268 -2.39278,-4.125 -4.4736,-7.67117 -4.62403,-7.88038 -0.15043,-0.20921 -2.87735,1.84397 -6.0598,4.56262 -11.58334,9.89519 -23.35652,18.03594 -36.28629,25.09073 -18.9164,10.32123 -36.95324,13.96287 -55.6128,11.22821 z m 29.26118,-12.97096 c 21.39808,-5.92971 49.88019,-24.71334 67.44589,-44.4798 l 5.59428,-6.29516 2.2666,7.12237 c 7.59463,23.86465 22.26514,38.81073 41.8837,42.67045 8.31939,1.63674 25.45294,0.69087 35.54556,-1.96232 16.17387,-4.25186 34.41577,-14.14556 47.92378,-25.99201 3.19451,-2.80156 5.98062,-5.09375 6.19136,-5.09375 0.21074,0 1.86528,2.78072 3.67674,6.17938 9.52765,17.8757 27.84808,27.83877 51.13576,27.80879 26.67927,-0.0343 53.66732,-14.07903 79.21158,-41.22203 10.64631,-11.31263 14.01291,-17.68521 12.98673,-24.58234 -1.33215,-8.95354 -12.6301,-16.49439 -20.90668,-13.95424 -2.23725,0.68663 -7.63038,5.34627 -16.2273,14.0203 -14.43048,14.55991 -21.7218,20.19176 -32.72056,25.2735 -6.35907,2.93807 -8.62697,3.47664 -14.63994,3.47664 -7.57757,0 -11.13042,-1.2541 -14.60404,-5.15499 -3.999,-4.49089 -4.91262,-8.65961 -4.89711,-22.34501 0.0144,-12.71523 1.8925,-24.91478 5.92701,-38.5 0.73502,-2.475 2.34037,-7.875 3.56745,-12 5.95702,-20.02548 10.39069,-31.62871 17.959,-47 4.16068,-8.45038 5.065,-11.17164 4.63275,-13.94074 -0.81687,-5.23294 -8.50249,-10.95545 -16.71198,-12.4433 -4.31168,-0.78143 -12.9383,0.89657 -18.14118,3.5287 C 789.64053,601.25792 777.96104,623.633 767.72112,657.5 764.30905,668.78492 759,692.91609 759,697.14003 c 0,1.52961 -0.7211,3.36136 -1.60245,4.07054 -0.88135,0.70919 -6.39385,6.06137 -12.25,11.89375 C 723.94399,734.2218 706.20627,744.12989 690,743.90914 678.19201,743.7483 669.71894,735.33983 665.90716,720 c -1.54284,-6.20886 -1.89458,-31.53984 -0.58564,-42.17464 l 0.82153,-6.67464 7.67847,-6.32536 c 17.68764,-14.57068 41.64251,-39.55512 57.83947,-60.32536 39.49399,-50.64531 63.0637,-99.79991 69.86867,-145.71107 2.75707,-18.60113 -0.49457,-31.61423 -10.3283,-41.33396 -5.3894,-5.32693 -8.66105,-7.22283 -15.70136,-9.09888 -13.83816,-3.68747 -30.99004,0.0342 -46.5,10.08962 -23.87861,15.48103 -48.78787,51.06072 -65.49717,93.55429 -22.71709,57.77205 -37.79211,120.78954 -41.14902,172.01351 -0.36665,5.5949 -1.04993,9.6743 -1.56688,9.35481 -0.50419,-0.31161 -2.45702,-0.27759 -4.33963,0.0756 -2.80598,0.5264 -4.54048,2.11022 -9.62333,8.78734 -15.07906,19.80867 -38.16587,38.39168 -54.41371,43.79861 -11.4568,3.81258 -25.56907,2.27895 -28.44299,-3.09101 -1.77684,-3.32006 -0.65828,-11.00334 2.5643,-17.61397 3.84326,-7.88385 17.16682,-20.95329 30.31504,-29.73683 17.53462,-11.71383 27.76512,-22.66177 34.65758,-37.08805 11.01532,-23.05561 4.76514,-49.28361 -14.00419,-58.76667 -4.29895,-2.17201 -17.60817,-4.10518 -23.83691,-3.46232 -23.56628,2.43226 -44.12384,14.0818 -69.16309,39.1933 -21.68647,21.74904 -39.20868,45.26358 -60.66021,81.40505 C 414.74722,732.18849 414,733.16247 414,729.69526 c 0,-6.05839 2.88015,-31.86217 5.58056,-49.99728 l 2.50191,-16.80203 15.77819,-15.69797 c 29.2316,-29.083 64.00932,-70.07342 80.76933,-95.19798 26.10875,-39.13905 39.68497,-70.40428 41.06406,-94.56811 1.34668,-23.5961 -6.20422,-39.77516 -21.95974,-47.05237 -5.78504,-2.67201 -7.09909,-2.87799 -18.23431,-2.85834 -23.07466,0.0407 -39.86631,7.61473 -58.60096,26.43245 -14.4373,14.50131 -25.14982,30.00692 -35.2669,51.04637 -21.80564,45.34691 -40.39787,119.64881 -48.29351,193 -2.56339,23.8141 -2.59946,74.72031 -0.0595,84 2.61855,9.56687 6.29623,15.03572 12.02298,17.87865 4.41317,2.19083 5.24187,2.28932 10.49472,1.24738 10.87082,-2.15632 17.71319,-6.42992 29.70319,-18.55199 12.41821,-12.555 24.37223,-27.97369 36.49623,-47.07404 28.48924,-44.88246 55.06139,-69.5 75.01823,-69.5 4.16292,0 5.1965,0.39233 6.57461,2.49559 1.12214,1.7126 1.43736,3.54998 1.0047,5.85625 -1.2551,6.69028 -6.42179,12.41658 -23.68488,26.25023 C 493.9956,705.37419 485,718.54853 485,739.04989 c 0,23.11838 11.57081,36.76637 36,42.4627 8.71795,2.03282 23.37834,1.80938 31.64838,-0.48237 z M 671.63858,623.75 c 4.52576,-24.99034 10.20166,-47.25659 18.54473,-72.75 20.94495,-64.00017 40.68445,-95.76607 59.87548,-96.35495 8.76617,-0.26899 11.03154,4.55027 9.03837,19.22785 -3.67763,27.0819 -20.0467,61.52445 -49.9624,105.1271 -10.67752,15.56267 -36.17845,48 -37.73568,48 -0.19199,0 -0.0842,-1.4625 0.2395,-3.25 z m 30.3552,-54.8012 c 24.53468,-36.19927 39.82043,-66.91715 44.44835,-89.32238 C 748.25841,470.83327 748.41477,467 746.95716,467 c -2.17419,0 -11.10718,9.5346 -15.80269,16.86694 -9.75152,15.22765 -18.20797,35.10067 -29.63055,69.63306 -7.36427,22.26343 -8.91239,27.5 -8.13004,27.5 0.2376,0 4.10755,-5.42304 8.5999,-12.0512 z m -271.60519,39.02409 c 0.29622,-1.36009 1.2673,-6.29789 2.15795,-10.97289 7.94089,-41.68149 28.81376,-97.33572 45.62675,-121.65658 11.03779,-15.96672 24.45575,-24.17221 32.62194,-19.94931 4.24688,2.19615 5.62005,6.97485 4.89447,17.03307 -1.1784,16.33542 -9.16549,36.50569 -22.40308,56.57581 -14.9174,22.61697 -64.06346,84.32096 -62.89803,78.9699 z m 34.42815,-58.77161 c 22.08625,-29.16346 32.9538,-48.14515 37.04332,-64.70128 2.4202,-9.79804 3.51356,-18.5 2.32442,-18.5 -0.48642,0 -2.6974,1.31333 -4.91329,2.91851 -8.65821,6.27198 -19.18579,23.19139 -29.6061,47.58149 -7.80022,18.25746 -18.5162,48.5 -17.18521,48.5 0.20464,0 5.75623,-7.10943 12.33686,-15.79872 z M 520.75,669.23508 c 5.0875,-4.07096 9.25,-7.60508 9.25,-7.8536 0,-1.63023 -14.44208,9.14883 -19,14.18093 -3.53831,3.90642 -0.89727,2.1925 9.75,-6.32733 z M 831,566.83851 c -7.90032,-1.11169 -17.36117,-5.36313 -22.73152,-10.21492 -2.25508,-2.03733 -5.24004,-6.31807 -6.87662,-9.86179 -2.65874,-5.75701 -2.89179,-7.18886 -2.89102,-17.7618 7.5e-4,-10.29546 0.27319,-12.08086 2.60111,-17.04563 5.0509,-10.7721 13.8774,-18.28198 26.452,-22.50625 7.29375,-2.45024 8.93115,-2.63275 19.94605,-2.22329 10.50185,0.39038 12.7061,0.78778 17.6558,3.18309 11.47692,5.55404 18.30991,15.95614 19.46321,29.62952 2.03575,24.13565 -12.96344,43.56395 -36.22894,46.92698 -7.8301,1.13184 -8.48537,1.1271 -17.39007,-0.12591 z m 24.35336,-13.28192 c 5.73899,-2.48692 13.11815,-9.9006 15.6024,-15.67539 2.94077,-6.83601 3.07673,-19.75865 0.27453,-26.09349 -8.80152,-19.8973 -47.78478,-17.73716 -58.4858,3.24082 -5.09105,9.98034 -4.63841,21.96948 1.15129,30.49462 2.6707,3.93251 10.75659,8.87891 16.09279,9.84448 5.45769,0.98756 21.55963,-0.16212 25.36479,-1.81104 z"
         id="path59" />
      <path
         style="fill:#babbc5"
         d="m 394.26903,781.30701 c 0.97297,-0.25354 2.32297,-0.23687 3,0.0371 0.67703,0.27393 -0.11903,0.48137 -1.76903,0.46099 -1.65,-0.0204 -2.20394,-0.2445 -1.23097,-0.49804 z m 296.54347,-0.99012 c 0.72187,-0.28887 1.58438,-0.25335 1.91667,0.0789 0.33229,0.33229 -0.25834,0.56864 -1.3125,0.52522 -1.16495,-0.048 -1.4019,-0.28494 -0.60417,-0.60416 z m 113,0 c 0.72187,-0.28887 1.58438,-0.25335 1.91667,0.0789 0.33229,0.33229 -0.25834,0.56864 -1.3125,0.52522 -1.16495,-0.048 -1.4019,-0.28494 -0.60417,-0.60416 z M 384.40499,776.75 382.5,774.5 l 2.25,1.90499 c 2.11444,1.79022 2.70524,2.59501 1.90499,2.59501 -0.18976,0 -1.20226,-1.0125 -2.25,-2.25 z m 259.0321,-11 -2.93709,-3.25 3.25,2.93709 c 3.02946,2.73778 3.70965,3.56291 2.93709,3.56291 -0.1721,0 -1.6346,-1.4625 -3.25,-3.25 z M 883,749.5 c 1.86578,-1.925 3.61733,-3.5 3.89233,-3.5 0.275,0 -1.02655,1.575 -2.89233,3.5 -1.86578,1.925 -3.61733,3.5 -3.89233,3.5 -0.275,0 1.02655,-1.575 2.89233,-3.5 z m -346.1875,-1.18311 c 0.72187,-0.28887 1.58438,-0.25335 1.91667,0.0789 0.33229,0.33229 -0.25834,0.56864 -1.3125,0.52522 -1.16495,-0.048 -1.4019,-0.28494 -0.60417,-0.60416 z m 4,0 c 0.72187,-0.28887 1.58438,-0.25335 1.91667,0.0789 0.33229,0.33229 -0.25834,0.56864 -1.3125,0.52522 -1.16495,-0.048 -1.4019,-0.28494 -0.60417,-0.60416 z m 217.80059,-1.49987 c 0.28881,-0.4673 0.94401,-0.59075 1.45601,-0.27431 1.30838,0.80862 1.16106,1.12396 -0.52511,1.12396 -0.80081,0 -1.21971,-0.38234 -0.9309,-0.84965 z M 614,742.5 c 1.29175,-1.375 2.57363,-2.5 2.84863,-2.5 0.275,0 -0.55688,1.125 -1.84863,2.5 -1.29175,1.375 -2.57363,2.5 -2.84863,2.5 -0.275,0 0.55688,-1.125 1.84863,-2.5 z m 277,-0.81291 c 0,-0.1721 1.4625,-1.6346 3.25,-3.25 l 3.25,-2.93709 -2.93709,3.25 C 891.82513,741.77946 891,742.45965 891,741.68709 Z M 806.87244,739.25 c -1.24387,-1.58606 -1.2085,-1.62143 0.37756,-0.37756 0.9625,0.75485 1.75,1.54235 1.75,1.75 0,0.82304 -0.82119,0.29331 -2.12756,-1.37244 z M 586.5,724 c 0.99549,-1.1 2.03498,-2 2.30998,-2 0.275,0 -0.31449,0.9 -1.30998,2 -0.99549,1.1 -2.03498,2 -2.30998,2 -0.275,0 0.31449,-0.9 1.30998,-2 z m 275,-1 c 0.99549,-1.1 2.03498,-2 2.30998,-2 0.275,0 -0.31449,0.9 -1.30998,2 -0.99549,1.1 -2.03498,2 -2.30998,2 -0.275,0 0.31449,-0.9 1.30998,-2 z m -60.268,-4 c 0,-1.925 0.2058,-2.7125 0.45733,-1.75 0.25152,0.9625 0.25152,2.5375 0,3.5 -0.25153,0.9625 -0.45733,0.175 -0.45733,-1.75 z m 70.268,-6 c 0.99549,-1.1 2.03498,-2 2.30998,-2 0.275,0 -0.31449,0.9 -1.30998,2 -0.99549,1.1 -2.03498,2 -2.30998,2 -0.275,0 0.31449,-0.9 1.30998,-2 z m -273,-1 c 0.99549,-1.1 2.03498,-2 2.30998,-2 0.275,0 -0.31449,0.9 -1.30998,2 -0.99549,1.1 -2.03498,2 -2.30998,2 -0.275,0 0.31449,-0.9 1.30998,-2 z M 749,708.68709 c 0,-0.1721 1.4625,-1.6346 3.25,-3.25 l 3.25,-2.93709 -2.93709,3.25 C 749.82513,708.77946 749,709.45965 749,708.68709 Z M 375.15789,704 c 0,-1.375 0.22698,-1.9375 0.50439,-1.25 0.27741,0.6875 0.27741,1.8125 0,2.5 -0.27741,0.6875 -0.50439,0.125 -0.50439,-1.25 z M 611.5,696 c 0.99549,-1.1 2.03498,-2 2.30998,-2 0.275,0 -0.31449,0.9 -1.30998,2 -0.99549,1.1 -2.03498,2 -2.30998,2 -0.275,0 0.31449,-0.9 1.30998,-2 z m 10.69495,-12.5 c 0.0204,-1.65 0.2445,-2.20394 0.49804,-1.23097 0.25354,0.97297 0.23687,2.32297 -0.0371,3 -0.27393,0.67703 -0.48137,-0.11903 -0.46099,-1.76903 z M 578,677.62244 c 0,-0.20765 0.7875,-0.99515 1.75,-1.75 1.58606,-1.24387 1.62143,-1.2085 0.37756,0.37756 C 578.82119,677.91575 578,678.44548 578,677.62244 Z M 503.5,666 c 0.99549,-1.1 2.03498,-2 2.30998,-2 0.275,0 -0.31449,0.9 -1.30998,2 -0.99549,1.1 -2.03498,2 -2.30998,2 -0.275,0 0.31449,-0.9 1.30998,-2 z M 432,652.5 c 1.86578,-1.925 3.61733,-3.5 3.89233,-3.5 0.275,0 -1.02655,1.575 -2.89233,3.5 -1.86578,1.925 -3.61733,3.5 -3.89233,3.5 -0.275,0 1.02655,-1.575 2.89233,-3.5 z m 253.5,1.5 c 0.99549,-1.1 2.03498,-2 2.30998,-2 0.275,0 -0.31449,0.9 -1.30998,2 -0.99549,1.1 -2.03498,2 -2.30998,2 -0.275,0 0.31449,-0.9 1.30998,-2 z M 444,640.5 c 2.98742,-3.025 5.65668,-5.5 5.93168,-5.5 0.275,0 -1.94426,2.475 -4.93168,5.5 -2.98742,3.025 -5.65668,5.5 -5.93168,5.5 -0.275,0 1.94426,-2.475 4.93168,-5.5 z m 30,5.12244 c 0,-0.20765 0.7875,-0.99515 1.75,-1.75 1.58606,-1.24387 1.62143,-1.2085 0.37756,0.37756 C 474.82119,645.91575 474,646.44548 474,645.62244 Z M 709,630.5 c 1.29175,-1.375 2.57363,-2.5 2.84863,-2.5 0.275,0 -0.55688,1.125 -1.84863,2.5 -1.29175,1.375 -2.57363,2.5 -2.84863,2.5 -0.275,0 0.55688,-1.125 1.84863,-2.5 z m -216,-3.87756 c 0,-0.20765 0.7875,-0.99515 1.75,-1.75 1.58606,-1.24387 1.62143,-1.2085 0.37756,0.37756 C 493.82119,626.91575 493,627.44548 493,626.62244 Z M 459.5,624 c 0.99549,-1.1 2.03498,-2 2.30998,-2 0.275,0 -0.31449,0.9 -1.30998,2 -0.99549,1.1 -2.03498,2 -2.30998,2 -0.275,0 0.31449,-0.9 1.30998,-2 z M 716,622.62244 c 0,-0.20765 0.7875,-0.99515 1.75,-1.75 1.58606,-1.24387 1.62143,-1.2085 0.37756,0.37756 C 716.82119,622.91575 716,623.44548 716,622.62244 Z m -249,-7 c 0,-0.20765 0.7875,-0.99515 1.75,-1.75 1.58606,-1.24387 1.62143,-1.2085 0.37756,0.37756 C 467.82119,615.91575 467,616.44548 467,615.62244 Z m 255,0 c 0,-0.20765 0.7875,-0.99515 1.75,-1.75 1.58606,-1.24387 1.62143,-1.2085 0.37756,0.37756 C 722.82119,615.91575 722,616.44548 722,615.62244 Z m -291.39699,-7.45577 c -0.28327,-0.45834 0.12038,-0.83334 0.89699,-0.83334 0.77661,0 1.18026,0.375 0.89699,0.83334 C 432.11373,608.625 431.71008,609 431.5,609 c -0.21008,0 -0.61373,-0.375 -0.89699,-0.83333 z M 474,607.62244 c 0,-0.20765 0.7875,-0.99515 1.75,-1.75 1.58606,-1.24387 1.62143,-1.2085 0.37756,0.37756 C 474.82119,607.91575 474,608.44548 474,607.62244 Z m 6,-7 c 0,-0.20765 0.7875,-0.99515 1.75,-1.75 1.58606,-1.24387 1.62143,-1.2085 0.37756,0.37756 C 480.82119,600.91575 480,601.44548 480,600.62244 Z m 71.8125,-4.30555 c 0.72187,-0.28887 1.58438,-0.25335 1.91667,0.0789 0.33229,0.33229 -0.25834,0.56864 -1.3125,0.52522 -1.16495,-0.048 -1.4019,-0.28494 -0.60417,-0.60416 z m 261.45653,-4.00988 c 0.97297,-0.25354 2.32297,-0.23687 3,0.0371 0.67703,0.27393 -0.11903,0.48137 -1.76903,0.46099 -1.65,-0.0204 -2.20394,-0.2445 -1.23097,-0.49804 z M 815.40499,547.75 813.5,545.5 l 2.25,1.90499 c 2.11444,1.79022 2.70524,2.59501 1.90499,2.59501 -0.18976,0 -1.20226,-1.0125 -2.25,-2.25 z m -6.09512,-18.25 c 0.006,-3.3 0.1923,-4.52944 0.41486,-2.73209 0.22256,1.79735 0.21797,4.49735 -0.0102,6 -0.22818,1.50265 -0.41027,0.0321 -0.40466,-3.26791 z M 815,510.62244 c 0,-0.20765 0.7875,-0.99515 1.75,-1.75 1.58606,-1.24387 1.62143,-1.2085 0.37756,0.37756 C 815.82119,510.91575 815,511.44548 815,510.62244 Z m 21.75,-12.28472 c 0.6875,-0.27741 1.8125,-0.27741 2.5,0 0.6875,0.27741 0.125,0.50439 -1.25,0.50439 -1.375,0 -1.9375,-0.22698 -1.25,-0.50439 z m 14.0625,-0.0208 c 0.72187,-0.28887 1.58438,-0.25335 1.91667,0.0789 0.33229,0.33229 -0.25834,0.56864 -1.3125,0.52522 -1.16495,-0.048 -1.4019,-0.28494 -0.60417,-0.60416 z M 729.5,466 c 0.99549,-1.1 2.03498,-2 2.30998,-2 0.275,0 -0.31449,0.9 -1.30998,2 -0.99549,1.1 -2.03498,2 -2.30998,2 -0.275,0 0.31449,-0.9 1.30998,-2 z m 4.5,-4.37756 c 0,-0.20765 0.7875,-0.99515 1.75,-1.75 1.58606,-1.24387 1.62143,-1.2085 0.37756,0.37756 C 734.82119,461.91575 734,462.44548 734,461.62244 Z M 457,437.5 c 1.29175,-1.375 2.57363,-2.5 2.84863,-2.5 0.275,0 -0.55688,1.125 -1.84863,2.5 -1.29175,1.375 -2.57363,2.5 -2.84863,2.5 -0.275,0 0.55688,-1.125 1.84863,-2.5 z M 708.5,436 c 0.99549,-1.1 2.03498,-2 2.30998,-2 0.275,0 -0.31449,0.9 -1.30998,2 -0.99549,1.1 -2.03498,2 -2.30998,2 -0.275,0 0.31449,-0.9 1.30998,-2 z M 465,429.5 c 1.29175,-1.375 2.57363,-2.5 2.84863,-2.5 0.275,0 -0.55688,1.125 -1.84863,2.5 -1.29175,1.375 -2.57363,2.5 -2.84863,2.5 -0.275,0 0.55688,-1.125 1.84863,-2.5 z m 252,-1.87756 c 0,-0.20765 0.7875,-0.99515 1.75,-1.75 1.58606,-1.24387 1.62143,-1.2085 0.37756,0.37756 C 717.82119,427.91575 717,428.44548 717,427.62244 Z"
         id="path58" />
      <path
         style="fill:#9b9da3"
         d="m 528.8125,782.31689 c 0.72187,-0.28887 1.58438,-0.25335 1.91667,0.0789 0.33229,0.33229 -0.25834,0.56864 -1.3125,0.52522 -1.16495,-0.048 -1.4019,-0.28494 -0.60417,-0.60416 z M 686.75,780.33772 c 0.6875,-0.27741 1.8125,-0.27741 2.5,0 0.6875,0.27741 0.125,0.50439 -1.25,0.50439 -1.375,0 -1.9375,-0.22698 -1.25,-0.50439 z m 120.0625,-0.0208 c 0.72187,-0.28887 1.58438,-0.25335 1.91667,0.0789 0.33229,0.33229 -0.25834,0.56864 -1.3125,0.52522 -1.16495,-0.048 -1.4019,-0.28494 -0.60417,-0.60416 z m 12.9375,0.0208 c 0.6875,-0.27741 1.8125,-0.27741 2.5,0 0.6875,0.27741 0.125,0.50439 -1.25,0.50439 -1.375,0 -1.9375,-0.22698 -1.25,-0.50439 z M 423,768.62244 c 0,-0.20765 0.7875,-0.99515 1.75,-1.75 1.58606,-1.24387 1.62143,-1.2085 0.37756,0.37756 C 423.82119,768.91575 423,769.44548 423,768.62244 Z M 771.87244,765.25 c -1.24387,-1.58606 -1.2085,-1.62143 0.37756,-0.37756 1.66575,1.30637 2.19548,2.12756 1.37244,2.12756 -0.20765,0 -0.99515,-0.7875 -1.75,-1.75 z M 431,760.62244 c 0,-0.20765 0.7875,-0.99515 1.75,-1.75 1.58606,-1.24387 1.62143,-1.2085 0.37756,0.37756 C 431.82119,760.91575 431,761.44548 431,760.62244 Z m 7,-8 c 0,-0.20765 0.7875,-0.99515 1.75,-1.75 1.58606,-1.24387 1.62143,-1.2085 0.37756,0.37756 C 438.82119,752.91575 438,753.44548 438,752.62244 Z m -62.92105,-4.20577 c 0.048,-1.16495 0.28494,-1.4019 0.60416,-0.60417 0.28887,0.72187 0.25335,1.58438 -0.0789,1.91667 -0.33229,0.33229 -0.56864,-0.25834 -0.52522,-1.3125 z M 816.75,744.33772 c 0.6875,-0.27741 1.8125,-0.27741 2.5,0 0.6875,0.27741 0.125,0.50439 -1.25,0.50439 -1.375,0 -1.9375,-0.22698 -1.25,-0.50439 z m 6.51903,-0.0307 c 0.97297,-0.25354 2.32297,-0.23687 3,0.0371 0.67703,0.27393 -0.11903,0.48137 -1.76903,0.46099 -1.65,-0.0204 -2.20394,-0.2445 -1.23097,-0.49804 z M 522.19495,737.5 c 0.0204,-1.65 0.2445,-2.20394 0.49804,-1.23097 0.25354,0.97297 0.23687,2.32297 -0.0371,3 -0.27393,0.67703 -0.48137,-0.11903 -0.46099,-1.76903 z M 620,735.62244 c 0,-0.20765 0.7875,-0.99515 1.75,-1.75 1.58606,-1.24387 1.62143,-1.2085 0.37756,0.37756 C 620.82119,735.91575 620,736.44548 620,735.62244 Z m 237,-8 c 0,-0.20765 0.7875,-0.99515 1.75,-1.75 1.58606,-1.24387 1.62143,-1.2085 0.37756,0.37756 C 857.82119,727.91575 857,728.44548 857,727.62244 Z M 801.15789,724 c 0,-1.375 0.22698,-1.9375 0.50439,-1.25 0.27741,0.6875 0.27741,1.8125 0,2.5 -0.27741,0.6875 -0.50439,0.125 -0.50439,-1.25 z m -387.07894,-5.58333 c 0.048,-1.16495 0.28494,-1.4019 0.60416,-0.60417 0.28887,0.72187 0.25335,1.58438 -0.0789,1.91667 -0.33229,0.33229 -0.56864,-0.25834 -0.52522,-1.3125 z M 906.15789,718 c 0,-1.375 0.22698,-1.9375 0.50439,-1.25 0.27741,0.6875 0.27741,1.8125 0,2.5 -0.27741,0.6875 -0.50439,0.125 -0.50439,-1.25 z M 801.232,713 c 0,-1.925 0.2058,-2.7125 0.45733,-1.75 0.25152,0.9625 0.25152,2.5375 0,3.5 -0.25153,0.9625 -0.45733,0.175 -0.45733,-1.75 z m -264.27379,-2.25 c 2.45201,-2.6125 4.58951,-4.75 4.75,-4.75 0.75088,0 -0.043,0.89783 -4.45821,5.04179 L 532.5,715.5 Z M 375.19495,708.5 c 0.0204,-1.65 0.2445,-2.20394 0.49804,-1.23097 0.25354,0.97297 0.23687,2.32297 -0.0371,3 -0.27393,0.67703 -0.48137,-0.11903 -0.46099,-1.76903 z M 875.5,709 c 0.99549,-1.1 2.03498,-2 2.30998,-2 0.275,0 -0.31449,0.9 -1.30998,2 -0.99549,1.1 -2.03498,2 -2.30998,2 -0.275,0 0.31449,-0.9 1.30998,-2 z m -460.42105,-1.58333 c 0.048,-1.16495 0.28494,-1.4019 0.60416,-0.60417 0.28887,0.72187 0.25335,1.58438 -0.0789,1.91667 -0.33229,0.33229 -0.56864,-0.25834 -0.52522,-1.3125 z M 501,701.62244 c 0,-0.20765 0.7875,-0.99515 1.75,-1.75 1.58606,-1.24387 1.62143,-1.2085 0.37756,0.37756 C 501.82119,701.91575 501,702.44548 501,701.62244 Z m 7,-7 c 0,-0.20765 0.7875,-0.99515 1.75,-1.75 1.58606,-1.24387 1.62143,-1.2085 0.37756,0.37756 C 508.82119,694.91575 508,695.44548 508,694.62244 Z M 376.15789,692 c 0,-1.375 0.22698,-1.9375 0.50439,-1.25 0.27741,0.6875 0.27741,1.8125 0,2.5 -0.27741,0.6875 -0.50439,0.125 -0.50439,-1.25 z M 616.75,693.33772 c 0.6875,-0.27741 1.8125,-0.27741 2.5,0 0.6875,0.27741 0.125,0.50439 -1.25,0.50439 -1.375,0 -1.9375,-0.22698 -1.25,-0.50439 z M 622.27236,690 c 0,-2.475 0.19502,-3.4875 0.43337,-2.25 0.23836,1.2375 0.23836,3.2625 0,4.5 -0.23835,1.2375 -0.43337,0.225 -0.43337,-2.25 z M 574,681.5 c 1.86578,-1.925 3.61733,-3.5 3.89233,-3.5 0.275,0 -1.02655,1.575 -2.89233,3.5 -1.86578,1.925 -3.61733,3.5 -3.89233,3.5 -0.275,0 1.02655,-1.575 2.89233,-3.5 z m 90.07895,1.91667 c 0.048,-1.16495 0.28494,-1.4019 0.60416,-0.60417 0.28887,0.72187 0.25335,1.58438 -0.0789,1.91667 -0.33229,0.33229 -0.56864,-0.25834 -0.52522,-1.3125 z m -287,-4 c 0.048,-1.16495 0.28494,-1.4019 0.60416,-0.60417 0.28887,0.72187 0.25335,1.58438 -0.0789,1.91667 -0.33229,0.33229 -0.56864,-0.25834 -0.52522,-1.3125 z m 1,-9 c 0.048,-1.16495 0.28494,-1.4019 0.60416,-0.60417 0.28887,0.72187 0.25335,1.58438 -0.0789,1.91667 -0.33229,0.33229 -0.56864,-0.25834 -0.52522,-1.3125 z M 499.5,670 c 0.99549,-1.1 2.03498,-2 2.30998,-2 0.275,0 -0.31449,0.9 -1.30998,2 -0.99549,1.1 -2.03498,2 -2.30998,2 -0.275,0 0.31449,-0.9 1.30998,-2 z m 124.57895,-5.58333 c 0.048,-1.16495 0.28494,-1.4019 0.60416,-0.60417 0.28887,0.72187 0.25335,1.58438 -0.0789,1.91667 -0.33229,0.33229 -0.56864,-0.25834 -0.52522,-1.3125 z M 506,663.62244 c 0,-0.20765 0.7875,-0.99515 1.75,-1.75 1.58606,-1.24387 1.62143,-1.2085 0.37756,0.37756 C 506.82119,663.91575 506,664.44548 506,663.62244 Z m -126.92105,-2.20577 c 0.048,-1.16495 0.28494,-1.4019 0.60416,-0.60417 0.28887,0.72187 0.25335,1.58438 -0.0789,1.91667 -0.33229,0.33229 -0.56864,-0.25834 -0.52522,-1.3125 z M 422,661.62244 c 0,-0.20765 0.7875,-0.99515 1.75,-1.75 1.58606,-1.24387 1.62143,-1.2085 0.37756,0.37756 C 422.82119,661.91575 422,662.44548 422,661.62244 Z M 690,649.5 c 1.29175,-1.375 2.57363,-2.5 2.84863,-2.5 0.275,0 -0.55688,1.125 -1.84863,2.5 -1.29175,1.375 -2.57363,2.5 -2.84863,2.5 -0.275,0 0.55688,-1.125 1.84863,-2.5 z m -254,-0.87756 c 0,-0.20765 0.7875,-0.99515 1.75,-1.75 1.58606,-1.24387 1.62143,-1.2085 0.37756,0.37756 C 436.82119,648.91575 436,649.44548 436,648.62244 Z m 103.25,-3.31177 c 0.9625,-0.25152 2.5375,-0.25152 3.5,0 0.9625,0.25153 0.175,0.45733 -1.75,0.45733 -1.925,0 -2.7125,-0.2058 -1.75,-0.45733 z M 477,642.62244 c 0,-0.20765 0.7875,-0.99515 1.75,-1.75 1.58606,-1.24387 1.62143,-1.2085 0.37756,0.37756 C 477.82119,642.91575 477,643.44548 477,642.62244 Z M 596.15789,638 c 0,-1.375 0.22698,-1.9375 0.50439,-1.25 0.27741,0.6875 0.27741,1.8125 0,2.5 -0.27741,0.6875 -0.50439,0.125 -0.50439,-1.25 z M 704.5,635 c 0.99549,-1.1 2.03498,-2 2.30998,-2 0.275,0 -0.31449,0.9 -1.30998,2 -0.99549,1.1 -2.03498,2 -2.30998,2 -0.275,0 0.31449,-0.9 1.30998,-2 z m -108.34211,-3 c 0,-1.375 0.22698,-1.9375 0.50439,-1.25 0.27741,0.6875 0.27741,1.8125 0,2.5 -0.27741,0.6875 -0.50439,0.125 -0.50439,-1.25 z M 490,629.62244 c 0,-0.20765 0.7875,-0.99515 1.75,-1.75 1.58606,-1.24387 1.62143,-1.2085 0.37756,0.37756 C 490.82119,629.91575 490,630.44548 490,629.62244 Z m -35,-1 c 0,-0.20765 0.7875,-0.99515 1.75,-1.75 1.58606,-1.24387 1.62143,-1.2085 0.37756,0.37756 C 455.82119,628.91575 455,629.44548 455,628.62244 Z m 379.07895,-22.20577 c 0.048,-1.16495 0.28494,-1.4019 0.60416,-0.60417 0.28887,0.72187 0.25335,1.58438 -0.0789,1.91667 -0.33229,0.33229 -0.56864,-0.25834 -0.52522,-1.3125 z M 555.75,596.29427 c 1.2375,-0.23836 3.2625,-0.23836 4.5,0 1.2375,0.23835 0.225,0.43337 -2.25,0.43337 -2.475,0 -3.4875,-0.19502 -2.25,-0.43337 z m 253.0625,-2.97738 c 0.72187,-0.28887 1.58438,-0.25335 1.91667,0.0789 0.33229,0.33229 -0.25834,0.56864 -1.3125,0.52522 -1.16495,-0.048 -1.4019,-0.28494 -0.60417,-0.60416 z m 25,-38 c 0.72187,-0.28887 1.58438,-0.25335 1.91667,0.0789 0.33229,0.33229 -0.25834,0.56864 -1.3125,0.52522 -1.16495,-0.048 -1.4019,-0.28494 -0.60417,-0.60416 z m 10.9375,0.0208 c 0.6875,-0.27741 1.8125,-0.27741 2.5,0 0.6875,0.27741 0.125,0.50439 -1.25,0.50439 -1.375,0 -1.9375,-0.22698 -1.25,-0.50439 z M 866.40499,505.75 864.5,503.5 l 2.25,1.90499 c 1.2375,1.04774 2.25,2.06024 2.25,2.25 0,0.80025 -0.80479,0.20945 -2.59501,-1.90499 z M 842.25,498.28375 c 1.5125,-0.22913 3.9875,-0.22913 5.5,0 1.5125,0.22912 0.275,0.41659 -2.75,0.41659 -3.025,0 -4.2625,-0.18747 -2.75,-0.41659 z M 516.15789,468 c 0,-1.375 0.22698,-1.9375 0.50439,-1.25 0.27741,0.6875 0.27741,1.8125 0,2.5 -0.27741,0.6875 -0.50439,0.125 -0.50439,-1.25 z M 486.5,464 c 2.14824,-2.2 4.1309,-4 4.4059,-4 0.275,0 -1.25766,1.8 -3.4059,4 -2.14824,2.2 -4.1309,4 -4.4059,4 -0.275,0 1.25766,-1.8 3.4059,-4 z m 315.65789,-16 c 0,-1.375 0.22698,-1.9375 0.50439,-1.25 0.27741,0.6875 0.27741,1.8125 0,2.5 -0.27741,0.6875 -0.50439,0.125 -0.50439,-1.25 z m -243.07894,-2.58333 c 0.048,-1.16495 0.28494,-1.4019 0.60416,-0.60417 0.28887,0.72187 0.25335,1.58438 -0.0789,1.91667 -0.33229,0.33229 -0.56864,-0.25834 -0.52522,-1.3125 z M 460,434.62244 c 0,-0.20765 0.7875,-0.99515 1.75,-1.75 1.58606,-1.24387 1.62143,-1.2085 0.37756,0.37756 C 460.82119,434.91575 460,435.44548 460,434.62244 Z m 251,-0.93535 c 0,-0.1721 1.4625,-1.6346 3.25,-3.25 l 3.25,-2.93709 -2.93709,3.25 C 711.82513,433.77946 711,434.45965 711,433.68709 Z M 512.75,407.33772 c 0.6875,-0.27741 1.8125,-0.27741 2.5,0 0.6875,0.27741 0.125,0.50439 -1.25,0.50439 -1.375,0 -1.9375,-0.22698 -1.25,-0.50439 z m 246.0625,-0.0208 c 0.72187,-0.28887 1.58438,-0.25335 1.91667,0.0789 0.33229,0.33229 -0.25834,0.56864 -1.3125,0.52522 -1.16495,-0.048 -1.4019,-0.28494 -0.60417,-0.60416 z m 10,0 c 0.72187,-0.28887 1.58438,-0.25335 1.91667,0.0789 0.33229,0.33229 -0.25834,0.56864 -1.3125,0.52522 -1.16495,-0.048 -1.4019,-0.28494 -0.60417,-0.60416 z"
         id="path57" />
      <path
         style="fill:#7d8082"
         d="m 531.75,782.33772 c 0.6875,-0.27741 1.8125,-0.27741 2.5,0 0.6875,0.27741 0.125,0.50439 -1.25,0.50439 -1.375,0 -1.9375,-0.22698 -1.25,-0.50439 z m 10.0625,-0.0208 c 0.72187,-0.28887 1.58438,-0.25335 1.91667,0.0789 0.33229,0.33229 -0.25834,0.56864 -1.3125,0.52522 -1.16495,-0.048 -1.4019,-0.28494 -0.60417,-0.60416 z m 135.95541,-2.04162 c 1.79735,-0.22256 4.49735,-0.21797 6,0.0102 1.50265,0.22818 0.0321,0.41027 -3.26791,0.40466 -3.3,-0.006 -4.52944,-0.1923 -2.73209,-0.41486 z m 133.48209,0.008 c 1.5125,-0.22913 3.9875,-0.22913 5.5,0 1.5125,0.22912 0.275,0.41659 -2.75,0.41659 -3.025,0 -4.2625,-0.18747 -2.75,-0.41659 z m -8.4375,-0.96686 c 0.72187,-0.28887 1.58438,-0.25335 1.91667,0.0789 0.33229,0.33229 -0.25834,0.56864 -1.3125,0.52522 -1.16495,-0.048 -1.4019,-0.28494 -0.60417,-0.60416 z m 21,0 c 0.72187,-0.28887 1.58438,-0.25335 1.91667,0.0789 0.33229,0.33229 -0.25834,0.56864 -1.3125,0.52522 -1.16495,-0.048 -1.4019,-0.28494 -0.60417,-0.60416 z M 428,763.5 c 1.29175,-1.375 2.57363,-2.5 2.84863,-2.5 0.275,0 -0.55688,1.125 -1.84863,2.5 -1.29175,1.375 -2.57363,2.5 -2.84863,2.5 -0.275,0 0.55688,-1.125 1.84863,-2.5 z m 450,-9.87756 c 0,-0.20765 0.7875,-0.99515 1.75,-1.75 1.58606,-1.24387 1.62143,-1.2085 0.37756,0.37756 C 878.82119,753.91575 878,754.44548 878,753.62244 Z m -124,-3 c 0,-0.20765 0.7875,-0.99515 1.75,-1.75 1.58606,-1.24387 1.62143,-1.2085 0.37756,0.37756 C 754.82119,750.91575 754,751.44548 754,750.62244 Z M 609.5,746 c 0.99549,-1.1 2.03498,-2 2.30998,-2 0.275,0 -0.31449,0.9 -1.30998,2 -0.99549,1.1 -2.03498,2 -2.30998,2 -0.275,0 0.31449,-0.9 1.30998,-2 z m -234.30505,-1.5 c 0.0204,-1.65 0.2445,-2.20394 0.49804,-1.23097 0.25354,0.97297 0.23687,2.32297 -0.0371,3 -0.27393,0.67703 -0.48137,-0.11903 -0.46099,-1.76903 z m 149.21004,0.25 -1.90499,-2.25 2.25,1.90499 c 2.11444,1.79022 2.70524,2.59501 1.90499,2.59501 -0.18976,0 -1.20226,-1.0125 -2.25,-2.25 z m 164.35667,-0.45726 c 1.24391,-0.23919 3.04391,-0.23011 4,0.0202 0.95609,0.25029 -0.0617,0.446 -2.26166,0.4349 -2.2,-0.0111 -2.98225,-0.21589 -1.73834,-0.45508 z M 614,741.68709 c 0,-0.1721 1.4625,-1.6346 3.25,-3.25 l 3.25,-2.93709 -2.93709,3.25 C 614.82513,741.77946 614,742.45965 614,741.68709 Z M 896.5,735 c 0.99549,-1.1 2.03498,-2 2.30998,-2 0.275,0 -0.31449,0.9 -1.30998,2 -0.99549,1.1 -2.03498,2 -2.30998,2 -0.275,0 0.31449,-0.9 1.30998,-2 z m -483.22764,-4 c 0,-2.475 0.19502,-3.4875 0.43337,-2.25 0.23836,1.2375 0.23836,3.2625 0,4.5 -0.23835,1.2375 -0.43337,0.225 -0.43337,-2.25 z m 71.88553,2 c 0,-1.375 0.22698,-1.9375 0.50439,-1.25 0.27741,0.6875 0.27741,1.8125 0,2.5 -0.27741,0.6875 -0.50439,0.125 -0.50439,-1.25 z M 854,730.62244 c 0,-0.20765 0.7875,-0.99515 1.75,-1.75 1.58606,-1.24387 1.62143,-1.2085 0.37756,0.37756 C 854.82119,730.91575 854,731.44548 854,730.62244 Z M 592.95821,718.75 c 2.45201,-2.6125 4.58951,-4.75 4.75,-4.75 0.75088,0 -0.043,0.89783 -4.45821,5.04179 L 588.5,723.5 Z M 739.5,719 c 2.14824,-2.2 4.1309,-4 4.4059,-4 0.275,0 -1.25766,1.8 -3.4059,4 -2.14824,2.2 -4.1309,4 -4.4059,4 -0.275,0 1.25766,-1.8 3.4059,-4 z m -364.22764,-4 c 0,-2.475 0.19502,-3.4875 0.43337,-2.25 0.23836,1.2375 0.23836,3.2625 0,4.5 -0.23835,1.2375 -0.43337,0.225 -0.43337,-2.25 z m 38.88553,0 c 0,-1.375 0.22698,-1.9375 0.50439,-1.25 0.27741,0.6875 0.27741,1.8125 0,2.5 -0.27741,0.6875 -0.50439,0.125 -0.50439,-1.25 z m 249.92106,-0.58333 c 0.048,-1.16495 0.28494,-1.4019 0.60416,-0.60417 0.28887,0.72187 0.25335,1.58438 -0.0789,1.91667 -0.33229,0.33229 -0.56864,-0.25834 -0.52522,-1.3125 z M 747,711.5 c 1.29175,-1.375 2.57363,-2.5 2.84863,-2.5 0.275,0 -0.55688,1.125 -1.84863,2.5 -1.29175,1.375 -2.57363,2.5 -2.84863,2.5 -0.275,0 0.55688,-1.125 1.84863,-2.5 z m 54.15789,-3.5 c 0,-1.375 0.22698,-1.9375 0.50439,-1.25 0.27741,0.6875 0.27741,1.8125 0,2.5 -0.27741,0.6875 -0.50439,0.125 -0.50439,-1.25 z M 878,706.62244 c 0,-0.20765 0.7875,-0.99515 1.75,-1.75 1.58606,-1.24387 1.62143,-1.2085 0.37756,0.37756 C 878.82119,706.91575 878,707.44548 878,706.62244 Z M 663.34281,698.5 c 0.004,-4.4 0.17944,-6.07561 0.39069,-3.72357 0.21124,2.35204 0.20827,5.95204 -0.007,8 -0.21487,2.04796 -0.38771,0.12357 -0.38408,-4.27643 z m 138.73614,3.91667 c 0.048,-1.16495 0.28494,-1.4019 0.60416,-0.60417 0.28887,0.72187 0.25335,1.58438 -0.0789,1.91667 -0.33229,0.33229 -0.56864,-0.25834 -0.52522,-1.3125 z M 887.75,701.33772 c 0.6875,-0.27741 1.8125,-0.27741 2.5,0 0.6875,0.27741 0.125,0.50439 -1.25,0.50439 -1.375,0 -1.9375,-0.22698 -1.25,-0.50439 z M 505.5,697 c 0.99549,-1.1 2.03498,-2 2.30998,-2 0.275,0 -0.31449,0.9 -1.30998,2 -0.99549,1.1 -2.03498,2 -2.30998,2 -0.275,0 0.31449,-0.9 1.30998,-2 z m -129.34211,-1 c 0,-1.375 0.22698,-1.9375 0.50439,-1.25 0.27741,0.6875 0.27741,1.8125 0,2.5 -0.27741,0.6875 -0.50439,0.125 -0.50439,-1.25 z m 382.92106,0.41667 c 0.048,-1.16495 0.28494,-1.4019 0.60416,-0.60417 0.28887,0.72187 0.25335,1.58438 -0.0789,1.91667 -0.33229,0.33229 -0.56864,-0.25834 -0.52522,-1.3125 z m -342,-7 c 0.048,-1.16495 0.28494,-1.4019 0.60416,-0.60417 0.28887,0.72187 0.25335,1.58438 -0.0789,1.91667 -0.33229,0.33229 -0.56864,-0.25834 -0.52522,-1.3125 z M 377.15789,683 c 0,-1.375 0.22698,-1.9375 0.50439,-1.25 0.27741,0.6875 0.27741,1.8125 0,2.5 -0.27741,0.6875 -0.50439,0.125 -0.50439,-1.25 z m 286.92106,-2.58333 c 0.048,-1.16495 0.28494,-1.4019 0.60416,-0.60417 0.28887,0.72187 0.25335,1.58438 -0.0789,1.91667 -0.33229,0.33229 -0.56864,-0.25834 -0.52522,-1.3125 z M 623.15789,676 c 0,-1.375 0.22698,-1.9375 0.50439,-1.25 0.27741,0.6875 0.27741,1.8125 0,2.5 -0.27741,0.6875 -0.50439,0.125 -0.50439,-1.25 z M 495,674.5 c 1.29175,-1.375 2.57363,-2.5 2.84863,-2.5 0.275,0 -0.55688,1.125 -1.84863,2.5 -1.29175,1.375 -2.57363,2.5 -2.84863,2.5 -0.275,0 0.55688,-1.125 1.84863,-2.5 z m -116.92105,-1.08333 c 0.048,-1.16495 0.28494,-1.4019 0.60416,-0.60417 0.28887,0.72187 0.25335,1.58438 -0.0789,1.91667 -0.33229,0.33229 -0.56864,-0.25834 -0.52522,-1.3125 z M 538,670.68709 c 0,-0.1721 1.4625,-1.6346 3.25,-3.25 l 3.25,-2.93709 -2.93709,3.25 C 538.82513,670.77946 538,671.45965 538,670.68709 Z m 129,-1.06465 c 0,-0.20765 0.7875,-0.99515 1.75,-1.75 1.58606,-1.24387 1.62143,-1.2085 0.37756,0.37756 C 667.82119,669.91575 667,670.44548 667,669.62244 Z m -287.92105,-5.20577 c 0.048,-1.16495 0.28494,-1.4019 0.60416,-0.60417 0.28887,0.72187 0.25335,1.58438 -0.0789,1.91667 -0.33229,0.33229 -0.56864,-0.25834 -0.52522,-1.3125 z M 425,658.62244 c 0,-0.20765 0.7875,-0.99515 1.75,-1.75 1.58606,-1.24387 1.62143,-1.2085 0.37756,0.37756 C 425.82119,658.91575 425,659.44548 425,658.62244 Z M 681.5,657 c 0.99549,-1.1 2.03498,-2 2.30998,-2 0.275,0 -0.31449,0.9 -1.30998,2 -0.99549,1.1 -2.03498,2 -2.30998,2 -0.275,0 0.31449,-0.9 1.30998,-2 z m -209,-9 c 0.99549,-1.1 2.03498,-2 2.30998,-2 0.275,0 -0.31449,0.9 -1.30998,2 -0.99549,1.1 -2.03498,2 -2.30998,2 -0.275,0 0.31449,-0.9 1.30998,-2 z m 225,-6 c 2.70865,-2.75 5.14982,-5 5.42482,-5 0.275,0 -1.71617,2.25 -4.42482,5 -2.70865,2.75 -5.14982,5 -5.42482,5 -0.275,0 1.71617,-2.25 4.42482,-5 z m -213,-7 c 2.70865,-2.75 5.14982,-5 5.42482,-5 0.275,0 -1.71617,2.25 -4.42482,5 -2.70865,2.75 -5.14982,5 -5.42482,5 -0.275,0 1.71617,-2.25 4.42482,-5 z M 449,634.68709 c 0,-0.1721 1.4625,-1.6346 3.25,-3.25 l 3.25,-2.93709 -2.93709,3.25 C 449.82513,634.77946 449,635.45965 449,634.68709 Z m 262,-7.06465 c 0,-0.20765 0.7875,-0.99515 1.75,-1.75 1.58606,-1.24387 1.62143,-1.2085 0.37756,0.37756 C 711.82119,627.91575 711,628.44548 711,627.62244 Z M 462.5,620 c 0.99549,-1.1 2.03498,-2 2.30998,-2 0.275,0 -0.31449,0.9 -1.30998,2 -0.99549,1.1 -2.03498,2 -2.30998,2 -0.275,0 0.31449,-0.9 1.30998,-2 z m 6.5,-7.37756 c 0,-0.20765 0.7875,-0.99515 1.75,-1.75 1.58606,-1.24387 1.62143,-1.2085 0.37756,0.37756 C 469.82119,612.91575 469,613.44548 469,612.62244 Z m -40,-2.68146 c 0,-0.58246 0.45,-0.7809 1,-0.44098 0.55,0.33992 1,0.81648 1,1.05902 0,0.24254 -0.45,0.44098 -1,0.44098 -0.55,0 -1,-0.47656 -1,-1.05902 z M 828.87244,598.25 c -1.24387,-1.58606 -1.2085,-1.62143 0.37756,-0.37756 1.66575,1.30637 2.19548,2.12756 1.37244,2.12756 -0.20765,0 -0.99515,-0.7875 -1.75,-1.75 z m -13.05994,-4.93311 c 0.72187,-0.28887 1.58438,-0.25335 1.91667,0.0789 0.33229,0.33229 -0.25834,0.56864 -1.3125,0.52522 -1.16495,-0.048 -1.4019,-0.28494 -0.60417,-0.60416 z M 837.75,555.29427 c 1.2375,-0.23836 3.2625,-0.23836 4.5,0 1.2375,0.23835 0.225,0.43337 -2.25,0.43337 -2.475,0 -3.4875,-0.19502 -2.25,-0.43337 z m 11.0625,-0.97738 c 0.72187,-0.28887 1.58438,-0.25335 1.91667,0.0789 0.33229,0.33229 -0.25834,0.56864 -1.3125,0.52522 -1.16495,-0.048 -1.4019,-0.28494 -0.60417,-0.60416 z M 863.5,547 c 0.99549,-1.1 2.03498,-2 2.30998,-2 0.275,0 -0.31449,0.9 -1.30998,2 -0.99549,1.1 -2.03498,2 -2.30998,2 -0.275,0 0.31449,-0.9 1.30998,-2 z m 8.82814,-22.5 c 0.004,-3.85 0.18518,-5.30246 0.40166,-3.2277 0.21647,2.07477 0.21284,5.22477 -0.008,7 -0.22091,1.77524 -0.39803,0.0777 -0.39359,-3.7723 z m -356.13319,-52 c 0.0204,-1.65 0.2445,-2.20394 0.49804,-1.23097 0.25354,0.97297 0.23687,2.32297 -0.0371,3 -0.27393,0.67703 -0.48137,-0.11903 -0.46099,-1.76903 z M 760.15789,465 c 0,-1.375 0.22698,-1.9375 0.50439,-1.25 0.27741,0.6875 0.27741,1.8125 0,2.5 -0.27741,0.6875 -0.50439,0.125 -0.50439,-1.25 z m -244,-1 c 0,-1.375 0.22698,-1.9375 0.50439,-1.25 0.27741,0.6875 0.27741,1.8125 0,2.5 -0.27741,0.6875 -0.50439,0.125 -0.50439,-1.25 z M 731,463.62244 c 0,-0.20765 0.7875,-0.99515 1.75,-1.75 1.58606,-1.24387 1.62143,-1.2085 0.37756,0.37756 C 731.82119,463.91575 731,464.44548 731,463.62244 Z M 559.32814,453.5 c 0.004,-3.85 0.18518,-5.30246 0.40166,-3.2277 0.21647,2.07477 0.21284,5.22477 -0.008,7 -0.22091,1.77524 -0.39803,0.0777 -0.39359,-3.7723 z m -46.4557,2.75 c -1.24387,-1.58606 -1.2085,-1.62143 0.37756,-0.37756 1.66575,1.30637 2.19548,2.12756 1.37244,2.12756 -0.20765,0 -0.99515,-0.7875 -1.75,-1.75 z M 705,440.62244 c 0,-0.20765 0.7875,-0.99515 1.75,-1.75 1.58606,-1.24387 1.62143,-1.2085 0.37756,0.37756 C 705.82119,440.91575 705,441.44548 705,440.62244 Z m 96.07895,-1.20577 c 0.048,-1.16495 0.28494,-1.4019 0.60416,-0.60417 0.28887,0.72187 0.25335,1.58438 -0.0789,1.91667 -0.33229,0.33229 -0.56864,-0.25834 -0.52522,-1.3125 z M 546.87244,417.25 c -1.24387,-1.58606 -1.2085,-1.62143 0.37756,-0.37756 1.66575,1.30637 2.19548,2.12756 1.37244,2.12756 -0.20765,0 -0.99515,-0.7875 -1.75,-1.75 z m 242,-1 c -1.24387,-1.58606 -1.2085,-1.62143 0.37756,-0.37756 0.9625,0.75485 1.75,1.54235 1.75,1.75 0,0.82304 -0.82119,0.29331 -2.12756,-1.37244 z m -270.60869,-8.96758 c 1.52006,-0.22986 3.77006,-0.22371 5,0.0136 1.22994,0.23736 -0.0137,0.42542 -2.76375,0.41792 -2.75,-0.008 -3.75631,-0.20172 -2.23625,-0.43157 z m 244.49791,0.0103 c 1.24391,-0.23919 3.04391,-0.23011 4,0.0202 0.95609,0.25029 -0.0617,0.446 -2.26166,0.4349 -2.2,-0.0111 -2.98225,-0.21589 -1.73834,-0.45508 z"
         id="path56" />
      <path
         style="fill:#535853"
         d="m 528.5,781.99098 c -21.47116,-2.5121 -36.39402,-12.96133 -41.22587,-28.86704 -2.51997,-8.29536 -2.17506,-21.91914 0.74999,-29.62394 5.17316,-13.62651 13.83701,-23.46053 37.00524,-42.00332 9.09114,-7.27614 17.83139,-14.9364 19.42277,-17.02281 5.43438,-7.12484 6.39133,-13.53434 2.66356,-17.84005 -1.36795,-1.58003 -2.56224,-1.77856 -7.78884,-1.2948 C 518.84269,647.235 493.79245,670.70695 466.049,714 c -13.41089,20.9274 -25.02039,36.00743 -37.02596,48.09441 -8.48353,8.54107 -11.98553,11.31284 -18.0689,14.30119 -28.31742,13.91043 -38.40131,-5.49783 -35.01653,-67.3956 3.79312,-69.36529 18.92555,-143.83983 41.24742,-203 16.42211,-43.5239 41.87039,-76.3708 70.40127,-90.86915 15.0862,-7.66626 38.84795,-9.4564 50.55656,-3.80879 C 552.10659,418.05741 559,431.85929 559,453.08187 c 0,21.9144 -10.53521,49.65504 -32.45409,85.456 C 508.66783,567.73884 473.43042,610.52712 438.04766,646 l -16.45808,16.5 -1.80456,11 c -4.25385,25.92997 -7.81867,62.84971 -5.88727,60.97256 0.58142,-0.56509 4.72953,-7.31509 9.21802,-15 20.45292,-35.0182 40.48862,-62.0543 61.88423,-83.50633 22.46105,-22.52028 38.45951,-32.59227 59.64657,-37.55108 7.5312,-1.76267 21.99886,-1.50543 28.53505,0.50736 8.95608,2.75798 18.25936,12.22103 21.05338,21.41491 0.70246,2.31151 1.25071,9.05419 1.23287,15.16258 -0.0259,8.87177 -0.47571,12.24609 -2.32482,17.44055 -5.32138,14.94865 -17.26423,28.83433 -35.41553,41.17682 -21.91666,14.90287 -34.12055,29.46933 -35.4197,42.2767 -0.91162,8.98697 4.18612,12.6115 17.69218,12.57926 19.12118,-0.0456 47.91274,-20.19105 68.93974,-48.23703 4.37896,-5.84069 7.07177,-7.34958 11.57874,-6.48802 2.4331,0.46512 2.48152,0.3494 2.48152,-5.93015 0,-15.38341 6.12818,-57.27354 12.11561,-82.81813 12.23411,-52.19524 31.35021,-104.81514 48.86204,-134.5 9.85183,-16.70015 25.81414,-36.49525 36.54863,-45.32451 14.19455,-11.67519 25.81025,-16.64834 40.71234,-17.43058 14.40536,-0.75618 21.44182,1.67071 30.11099,10.38531 9.1651,9.21313 12.11971,22.04686 9.33631,40.55347 -2.02718,13.4785 -5.35447,26.91814 -10.00804,40.4246 -12.24161,35.52987 -36.93914,77.24829 -68.11329,115.05517 -10.65992,12.92795 -37.80485,40.32456 -49.2262,49.68259 l -8.16162,6.68718 -0.83838,8.73338 c -1.18147,12.30726 -0.86364,31.64617 0.63655,38.7318 4.12785,19.49651 14.85192,28.3096 31.16906,25.61488 15.83189,-2.61458 30.09595,-11.23864 47.56511,-28.7579 6.16502,-6.18269 12.06312,-11.69831 13.1069,-12.25692 1.46332,-0.78315 2.4118,-3.71515 4.143,-12.80707 7.00418,-36.7846 18.67882,-69.19793 30.72028,-85.2914 4.13556,-5.52719 5.75288,-6.85337 10.80644,-8.86108 C 816.82478,590.44219 834,596.37964 834,607.03337 c 0,1.19067 -2.73582,7.58284 -6.07961,14.20484 -9.53302,18.87909 -22.21535,58.9352 -25.92838,81.89272 -0.67881,4.19701 -1.05118,12.07201 -0.82751,17.5 0.47465,11.51849 2.27622,16.09982 8.18133,20.80483 3.66575,2.92076 4.27448,3.06323 13,3.04271 8.54308,-0.0201 9.62146,-0.26317 16.15417,-3.64128 10.57925,-5.4706 17.69678,-11.16468 32.22297,-25.77863 l 13.22297,-13.30285 5.92926,0.42888 c 9.37557,0.67817 16.16838,7.23072 16.10284,15.53329 -0.0579,7.32995 -11.29829,21.77134 -27.43397,35.24641 -15.25741,12.74162 -26.58695,19.2449 -41.24748,23.67652 -7.53263,2.27698 -10.73638,2.67343 -22.29659,2.75912 -8.4294,0.0625 -15.5658,-0.41498 -19,-1.27121 -13.42594,-3.3474 -26.02072,-13.45003 -32.22243,-25.84652 l -3.50794,-7.01195 -6.38481,5.4387 c -17.4964,14.90376 -37.41861,24.89354 -56.31848,28.24032 -10.02385,1.77502 -25.46938,1.32448 -32.86094,-0.95854 -17.02633,-5.2589 -30.66278,-21.04968 -36.33665,-42.07723 -0.9518,-3.52743 -1.85042,-6.57728 -1.99693,-6.77745 -0.14651,-0.20017 -2.8776,2.48842 -6.0691,5.97465 -15.36721,16.78633 -33.57432,30.42877 -52.55505,39.37907 -14.65024,6.90826 -25.91462,9.06117 -39.24767,7.50121 z M 679.27518,619.25 c 21.91799,-25.48666 49.15025,-66.14242 63.46594,-94.75 10.23014,-20.44328 15.38143,-35.94595 17.16525,-51.65844 1.57412,-13.86545 -0.88474,-19.01301 -9.07719,-19.00287 -19.63778,0.0243 -38.94723,29.93362 -60.16579,93.19358 -7.45174,22.21625 -13.05799,42.98098 -17.20931,63.74078 -1.89975,9.50017 -3.45408,17.48767 -3.45408,17.75 0,1.2663 1.50874,-0.24209 9.27518,-9.27305 z M 444.73457,593.70514 c 36.30542,-43.88188 54.17994,-69.28362 63.47495,-90.20514 4.05745,-9.13264 7.81437,-23.13724 8.47081,-31.57644 1.01308,-13.02411 -2.24693,-18.26619 -11.24726,-18.08554 -13.03293,0.2616 -27.11562,15.5715 -40.95646,44.52551 -14.46276,30.25503 -27.65681,70.30376 -32.98995,100.13647 -0.8849,4.95 -1.83673,9.7875 -2.11517,10.75 -0.27845,0.9625 -0.13844,1.72981 0.31112,1.70514 0.44957,-0.0247 7.22295,-7.78718 15.05196,-17.25 z M 828.7175,553.97501 c -8.9785,-2.27225 -14.92149,-7.55546 -17.2252,-15.31288 -4.60789,-15.51646 2.74716,-31.15901 17.26904,-36.7274 7.92843,-3.04014 19.23007,-3.65726 26.82364,-1.46469 12.3405,3.5632 16.3711,9.47942 16.3711,24.02996 0,13.18289 -4.35656,21.1641 -14.7621,27.04414 -4.02329,2.27352 -6.12282,2.70507 -14.69398,3.02033 -5.5,0.20229 -11.70212,-0.063 -13.7825,-0.58946 z"
         id="path55" />
    </g>
  </g>
</svg>
